# xmcd
#
# Track frame offsets:
#	150
#	18879
#	33749
#	55878
#	72500
#	88097
#	99754
#	122296
#	140328
#	153563
#	168170
#	182359
#	199521
#	211226
#	227760
#	245230
#	263832
#
# Disc length: 4039 seconds
#
# Revision: 0
# Processed by: cddbd v1.5.2PL0 Copyright (c) Steve Scherf et al.
# Submitted via: audiograbber 1.83.01
#
DISCID=df0fc511
DTITLE=Keb' Mo' - Just Like You
DYEAR=1996
DGENRE=Blues
TTITLE0=That's not love
TTITLE1=Perpetual blues machine
TTITLE2=More than one way
TTITLE3=I'm on your side
TTITLE4=Just like you
TTITLE5=You can love yourselv
TTITLE6=dangerous mood
TTITLE7=the action
TTITLE8=Hand it over
TTITLE9=Standin' at the station
TTITLE10=Momma, where's my daddy
TTITLE11=last fair deal gone down
TTITLE12=Lullaby baby blues
TTITLE13=bonustrack1
TTITLE14=bonustrack2
TTITLE15=bonustrack3
TTITLE16=bonustrack4
EXTD=
EXTT0=
EXTT1=
EXTT2=
EXTT3=
EXTT4=
EXTT5=
EXTT6=
EXTT7=
EXTT8=
EXTT9=
EXTT10=
EXTT11=
EXTT12=
EXTT13=
EXTT14=
EXTT15=
EXTT16=
PLAYORDER=
